{"title":"Ghost Lab - S02E06 - Eternal Home.[tNe.XViD].avi","uid":6012627,"size":363357674,"categoryP":"video","categoryS":"tv_shows","magnet":"?xt=urn:btih:95c66edb61cf3b42b7e819a83c01e983bc67bbe4&amp;dn=Ghost+Lab+-+S02E06+-+Eternal+Home.%5BtNe.XViD%5D.avi&amp;tr=udp%3A%2F%2Ftracker.openbittorrent.com%3A80&amp;tr=udp%3A%2F%2Fopen.demonii.com%3A1337&amp;tr=udp%3A%2F%2Ftracker.coppersurfer.tk%3A6969&amp;tr=udp%3A%2F%2Fexodus.desync.com%3A6969","seeders":1,"leechers":0,"uploader":"trialNerror","files":1,"time":1291512407,"description":"Format                           : AVI\nFormat/Info                      : Audio Video Interleave\nFile size                        : 347 MiB\nDuration                         : 40mn 3s\nOverall bit rate                 : 1 210 Kbps\nWriting application              : Lavf51.13.4\nWriting library                  : VirtualDub build 32839/release\n\nVideo\nID                               : 0\nFormat                           : MPEG-4 Visual\nFormat profile                   : Advanced Simple@L5\nFormat settings, BVOP            : Yes\nFormat settings, QPel            : No\nFormat settings, GMC             : No warppoints\nFormat settings, Matrix          : Default (H.263)\nCodec ID                         : XVID\nCodec ID/Hint                    : XviD\nDuration                         : 40mn 3s\nBit rate                         : 1 070 Kbps\nWidth                            : 624 pixels\nHeight                           : 352 pixels\nDisplay aspect ratio             : 16:9\nFrame rate                       : 29.970 fps\nColor space                      : YUV\nChroma subsampling               : 4:2:0\nBit depth                        : 8 bits\nScan type                        : Progressive\nBits/(Pixel*Frame)               : 0.163\nStream size                      : 307 MiB (88%)\nWriting library                  : XviD 1.2.1 (UTC 2008-12-04)\n\nAudio\nID                               : 1\nFormat                           : MPEG Audio\nFormat version                   : Version 1\nFormat profile                   : Layer 3\nMode                             : Joint stereo\nMode extension                   : MS Stereo\nCodec ID                         : 55\nCodec ID/Hint                    : MP3\nDuration                         : 40mn 2s\nBit rate mode                    : Constant\nBit rate                         : 128 Kbps\nChannel(s)                       : 2 channels\nSampling rate                    : 48.0 KHz\nStream size                      : 36.7 MiB (11%)\nAlignment                        : Split accross interleaves\nInterleave, duration             : 33 ms (1.00 video frame)\nInterleave, preload duration     : 500 ms\nWriting library                  : LAME3.98r\nEncoding settings                : -m j -V 4 -q 0 -lowpass 17 -b 128\n\n","torrent":{"xt":"urn:btih:95c66edb61cf3b42b7e819a83c01e983bc67bbe4","amp;dn":"Ghost+Lab+-+S02E06+-+Eternal+Home.%5BtNe.XViD%5D.avi","amp;tr":["udp%3A%2F%2Ftracker.openbittorrent.com%3A80","udp%3A%2F%2Fopen.demonii.com%3A1337","udp%3A%2F%2Ftracker.coppersurfer.tk%3A6969","udp%3A%2F%2Fexodus.desync.com%3A6969"],"infoHash":"95c66edb61cf3b42b7e819a83c01e983bc67bbe4","infoHashBuffer":{"type":"Buffer","data":[149,198,110,219,97,207,59,66,183,232,25,168,60,1,233,131,188,103,187,228]},"announce":[],"urlList":[]}}